<svg width="216" height="74" viewBox="0 0 216 74" fill="none" xmlns="http://www.w3.org/2000/svg">
<g clip-path="url(#clip0)">
<path d="M106.843 25.3866V23.0908C106.843 19.8931 106.535 17.7177 105.924 16.5611C105.313 15.4075 104.158 14.8305 102.46 14.8305C100.762 14.8305 99.6065 15.5252 98.9951 16.916C98.383 18.3078 98.0757 20.9358 98.0757 24.8019V25.3866H106.843ZM101.539 51.0891C96.5327 51.0891 92.9159 49.8373 90.6918 47.3336C88.4656 44.83 87.3535 40.741 87.3535 35.0667V26.9724C87.3535 20.1577 88.4864 15.3522 90.7542 12.556C93.0213 9.76052 96.9226 8.36287 102.458 8.36287C108.3 8.36287 112.276 9.57227 114.391 11.9933C116.505 14.4129 117.563 18.9743 117.563 25.6778V31.6452H98.0757V32.897C98.0757 37.6532 98.3616 40.7966 98.9314 42.3271C99.5025 43.8568 100.678 44.6215 102.458 44.6215C104.154 44.6215 105.337 44.0731 106.005 42.9738C106.672 41.8741 106.949 40.0468 106.838 37.4865V36.2764H117.563V37.4865C117.645 42.0209 116.353 45.4219 113.682 47.6888C111.012 49.9553 106.965 51.0891 101.539 51.0891Z" fill="#669933"/>
<path d="M136.053 15.7061C134.411 15.7061 133.299 16.2692 132.715 17.3958C132.13 18.5225 131.838 20.6443 131.838 23.7593V35.7341C131.838 38.6266 132.157 40.6852 132.798 41.9094C133.438 43.1337 134.509 43.7446 136.01 43.7446C137.734 43.7446 138.876 43.0145 139.432 41.5542C139.989 40.0953 140.266 37.0838 140.266 32.5211V26.9305C140.266 22.3688 139.995 19.3565 139.453 17.8976C138.911 16.4365 137.777 15.7061 136.053 15.7061ZM131.421 51.0891C127.721 51.0891 125.058 49.9482 123.43 47.6679C121.803 45.3871 120.989 41.6861 120.989 36.5689V22.0489C120.989 17.4862 121.858 14.0658 123.598 11.7839C125.337 9.50334 127.943 8.36288 131.421 8.36288C134.452 8.33536 137.402 9.62939 140.266 12.2432V0.00187302H145.65H151.074V50.2122H146.025H140.975V45.7476L140.517 46.4575C138.486 49.545 135.454 51.0891 131.421 51.0891Z" fill="#669933"/>
<path d="M165.305 37.9456C165.305 40.0048 165.611 41.4921 166.222 42.4102C166.835 43.3278 167.822 43.7866 169.186 43.7866C171.022 43.7866 172.295 43.0774 173.003 41.6591C173.713 40.2408 174.01 37.7929 173.9 34.3156V9.23931H179.282H184.707V50.2122H179.656H174.567V46.1652C171.703 49.4205 168.391 51.0616 164.637 51.0891C161.244 51.0891 158.707 50.1021 157.022 48.1267C155.34 46.1513 154.498 43.1896 154.498 39.2388V9.23931H159.881H165.305V37.9456Z" fill="#669933"/>
<path d="M215.855 34.8578V37.278C215.939 41.8958 214.798 45.3517 212.434 47.6456C210.07 49.9422 206.496 51.0891 201.711 51.0891C196.705 51.0891 193.096 49.8648 190.884 47.417C188.672 44.9703 187.567 40.9919 187.567 35.4835V23.9682C187.567 18.4609 188.672 14.4821 190.884 12.0345C193.096 9.58696 196.705 8.36287 201.711 8.36287C206.69 8.36287 210.306 9.5177 212.56 11.8258C214.757 14.0241 215.855 17.5148 215.855 22.2988V22.7998V24.0099H205.133V22.7998C205.245 20.38 205.027 18.5723 204.488 17.3756C203.944 16.179 203.06 15.5813 201.837 15.5813C200.502 15.5813 199.577 16.124 199.062 17.2078C198.549 18.2934 198.289 20.2691 198.289 23.1332V34.6496C198.289 38.4043 198.513 40.8805 198.958 42.076C199.402 43.2727 200.321 43.8699 201.711 43.8699C203.047 43.8699 203.978 43.3639 204.506 42.3473C205.035 41.3327 205.245 39.6425 205.133 37.278V34.8578H215.855Z" fill="#669933"/>
<path d="M88.9725 61.851C89.0409 62.0156 89.1356 62.1603 89.2544 62.2861C89.3611 62.3989 89.4886 62.4862 89.6315 62.5457C89.7752 62.6047 89.9329 62.6414 90.106 62.6532C90.357 62.6414 90.5758 62.6074 90.7604 62.5504C90.9463 62.4933 91.0946 62.4081 91.2081 62.2941C91.345 62.169 91.4477 62.0384 91.5134 61.9002C91.5785 61.7631 91.6148 61.6203 91.6215 61.4708C91.6215 61.3502 91.6027 61.2357 91.5671 61.1255C91.5309 61.0147 91.4779 60.9059 91.4054 60.7984C91.3342 60.6896 91.249 60.5978 91.1497 60.5205C91.0517 60.4431 90.9396 60.3802 90.8141 60.3317C90.7725 60.32 90.7309 60.3068 90.694 60.2911C90.6544 60.2767 90.6141 60.2636 90.5711 60.2518C90.5302 60.2387 90.4893 60.2269 90.451 60.2151C90.4128 60.2033 90.3752 60.1915 90.3389 60.1797C90.3269 60.1731 90.3134 60.1692 90.2987 60.1666C90.2832 60.1634 90.2705 60.1587 90.2584 60.1522C90.247 60.1522 90.2342 60.1517 90.2228 60.1482C90.2107 60.1456 90.1987 60.1404 90.1859 60.1351C90.1745 60.1286 90.1624 60.1246 90.1503 60.1207C90.1389 60.1181 90.1268 60.1141 90.1148 60.1084C90.096 60.1023 90.0819 60.0979 90.0698 60.0945C90.0584 60.0919 90.0463 60.0866 90.0336 60.0814C89.7779 59.9975 89.5322 59.9031 89.3 59.799C89.0664 59.6941 88.8423 59.5762 88.6275 59.4443C88.4121 59.3067 88.2524 59.1245 88.147 58.8977C88.043 58.6709 87.9906 58.3957 87.9906 58.0732C87.9906 57.8643 88.0389 57.6624 88.1336 57.4684C88.2295 57.2736 88.3705 57.0874 88.555 56.9079C88.7463 56.7349 88.9584 56.6033 89.1919 56.5133C89.4248 56.4242 89.6812 56.3796 89.9631 56.3796L90.3208 56.3704C90.6201 56.3765 90.898 56.4124 91.1544 56.4787C91.4114 56.5435 91.6416 56.6452 91.845 56.7828C92.0544 56.9144 92.2121 57.077 92.3201 57.271C92.4269 57.4657 92.4913 57.6852 92.5081 57.9298L92.1503 57.9211L91.5222 57.912C91.5222 57.7987 91.4873 57.6865 91.4195 57.5759C91.3497 57.4657 91.2477 57.3588 91.1094 57.2579C90.9973 57.1747 90.8664 57.1071 90.7201 57.056C90.5732 57.0049 90.4054 56.9708 90.2134 56.9532C90.0403 56.9768 89.8832 57.0193 89.743 57.0783C89.6034 57.1386 89.4785 57.2219 89.3705 57.3294C89.2577 57.4427 89.1705 57.5659 89.1114 57.697C89.051 57.8288 89.0215 57.9631 89.0215 58.1007C89.0215 58.1959 89.0342 58.2916 89.0617 58.3873C89.0893 58.4829 89.1329 58.5752 89.1919 58.6651C89.251 58.7548 89.3275 58.8382 89.4201 58.9161C89.5128 58.9934 89.6262 59.0655 89.7564 59.131C89.8101 59.1554 89.8644 59.1808 89.9215 59.207C89.9792 59.2333 90.0369 59.2595 90.096 59.2831C90.1571 59.3067 90.2161 59.3311 90.2765 59.3552C90.3356 59.3796 90.396 59.3998 90.4557 59.4176C90.4732 59.4233 90.492 59.4312 90.5094 59.4404C90.5275 59.449 90.5483 59.4561 90.5711 59.4627C90.5899 59.4745 90.6081 59.4837 90.6268 59.4902C90.6436 59.4954 90.6624 59.502 90.6792 59.5072C90.698 59.5125 90.7154 59.519 90.7329 59.5251C90.7517 59.5308 90.7725 59.5374 90.7953 59.5426C90.8141 59.5492 90.8309 59.5552 90.849 59.561C90.8678 59.567 90.8859 59.5728 90.9034 59.5788C91.1362 59.6567 91.355 59.7453 91.5584 59.8428C91.7618 59.9425 91.9497 60.0486 92.1228 60.1621C92.296 60.2753 92.4269 60.4274 92.5175 60.6188C92.6061 60.8102 92.651 61.043 92.651 61.3175C92.651 61.6884 92.5886 61.9991 92.4638 62.2495C92.3369 62.5006 92.1503 62.692 91.8993 62.8236C91.6477 62.9547 91.3846 63.0517 91.1094 63.1146C90.8349 63.1776 90.5483 63.2085 90.2497 63.2085H89.8913C89.6107 63.2085 89.3524 63.1736 89.1208 63.1015C88.8866 63.0294 88.6812 62.9193 88.5007 62.7698C88.3168 62.6204 88.1705 62.4251 88.0624 62.1826C87.9557 61.9401 87.8826 61.6525 87.8477 61.3175L88.4839 61.2991H88.8423C88.8604 61.5036 88.904 61.6866 88.9725 61.851Z" fill="#515451"/>
<path d="M95.0529 56.5763V63.0657H94.0576V56.5763H94.4174H95.0529Z" fill="#515451"/>
<path d="M97.5944 61.851C97.6629 62.0156 97.7575 62.1603 97.8763 62.2861C97.9837 62.3989 98.1099 62.4862 98.2528 62.5457C98.3958 62.6047 98.5542 62.6414 98.7273 62.6532C98.9783 62.6414 99.1965 62.6074 99.3817 62.5504C99.5669 62.4933 99.7166 62.4081 99.8293 62.2941C99.9676 62.169 100.069 62.0384 100.135 61.9002C100.2 61.7631 100.237 61.6203 100.242 61.4708C100.242 61.3502 100.225 61.2357 100.188 61.1255C100.154 61.0147 100.098 60.9059 100.027 60.7984C99.9562 60.6896 99.8703 60.5978 99.7723 60.5205C99.6743 60.4431 99.5616 60.3802 99.4347 60.3317C99.3944 60.32 99.3528 60.3068 99.3159 60.2911C99.2763 60.2767 99.2354 60.2636 99.1944 60.2518C99.1515 60.2387 99.1112 60.2269 99.073 60.2151C99.0334 60.2033 98.9971 60.1915 98.9602 60.1797C98.9488 60.1731 98.9347 60.1692 98.9206 60.1666C98.9052 60.1634 98.8918 60.1587 98.8803 60.1522C98.8683 60.1522 98.8562 60.1517 98.8441 60.1482C98.8327 60.1456 98.8193 60.1404 98.8085 60.1351C98.7965 60.1286 98.7837 60.1246 98.773 60.1207C98.7609 60.1181 98.7488 60.1141 98.7374 60.1084C98.7186 60.1023 98.7032 60.0979 98.6911 60.0945C98.6797 60.0919 98.6683 60.0866 98.6555 60.0814C98.3985 59.9975 98.1542 59.9031 97.9213 59.799C97.6877 59.6941 97.4642 59.5762 97.2495 59.4443C97.034 59.3067 96.8743 59.1245 96.7696 58.8977C96.6642 58.6709 96.6119 58.3957 96.6119 58.0732C96.6119 57.8643 96.6602 57.6624 96.7555 57.4684C96.8515 57.2736 96.9931 57.0874 97.177 56.9079C97.3683 56.7349 97.5803 56.6033 97.8132 56.5133C98.0468 56.4242 98.3025 56.3796 98.5844 56.3796L98.9434 56.3704C99.2421 56.3765 99.5186 56.4124 99.7757 56.4787C100.033 56.5435 100.263 56.6452 100.466 56.7828C100.676 56.9144 100.833 57.077 100.941 57.271C101.049 57.4657 101.112 57.6852 101.131 57.9298L100.771 57.9211L100.144 57.912C100.144 57.7987 100.11 57.6865 100.041 57.5759C99.9723 57.4657 99.8696 57.3588 99.732 57.2579C99.6193 57.1747 99.4877 57.1071 99.3421 57.056C99.1951 57.0049 99.026 56.9708 98.8361 56.9532C98.6622 56.9768 98.5045 57.0193 98.3642 57.0783C98.224 57.1386 98.1005 57.2219 97.9938 57.3294C97.8797 57.4427 97.7931 57.5659 97.7327 57.697C97.673 57.8288 97.6434 57.9631 97.6434 58.1007C97.6434 58.1959 97.6575 58.2916 97.6837 58.3873C97.7112 58.4829 97.7535 58.5752 97.8132 58.6651C97.8736 58.7548 97.9501 58.8382 98.0414 58.9161C98.1347 58.9934 98.2468 59.0655 98.379 59.131C98.4313 59.1554 98.4871 59.1808 98.5448 59.207C98.6011 59.2333 98.6595 59.2595 98.7186 59.2831C98.7777 59.3067 98.8387 59.3311 98.8978 59.3552C98.9575 59.3796 99.0179 59.3998 99.077 59.4176C99.0951 59.4233 99.1132 59.4312 99.1314 59.4404C99.1488 59.449 99.1703 59.4561 99.1944 59.4627C99.2119 59.4745 99.2307 59.4837 99.2475 59.4902C99.2656 59.4954 99.2837 59.502 99.3018 59.5072C99.3193 59.5125 99.3381 59.519 99.3548 59.5251C99.3736 59.5308 99.3944 59.5374 99.4179 59.5426C99.4347 59.5492 99.4542 59.5552 99.4716 59.561C99.4897 59.567 99.5072 59.5728 99.526 59.5788C99.7575 59.6567 99.977 59.7453 100.18 59.8428C100.382 59.9425 100.572 60.0486 100.744 60.1621C100.918 60.2753 101.049 60.4274 101.139 60.6188C101.229 60.8102 101.272 61.043 101.272 61.3175C101.272 61.6884 101.211 61.9991 101.084 62.2495C100.96 62.5006 100.771 62.692 100.52 62.8236C100.269 62.9547 100.007 63.0517 99.732 63.1146C99.4555 63.1776 99.1703 63.2085 98.8703 63.2085H98.5126C98.232 63.2085 97.9743 63.1736 97.7428 63.1015C97.5092 63.0294 97.3032 62.9193 97.1233 62.7698C96.9381 62.6204 96.7924 62.4251 96.6837 62.1826C96.5756 61.9401 96.5052 61.6525 96.4683 61.3175L97.1052 61.2991H97.4642C97.4817 61.5036 97.5253 61.6866 97.5944 61.851Z" fill="#515451"/>
<path d="M106.992 56.6392V57.1412H104.877V63.0657H104.518H103.882V57.1412H101.838V56.6392H102.196H106.992Z" fill="#515451"/>
<path d="M112.217 56.5763V57.1412H108.972V59.4627H112.082V60.0271H108.972V62.5007H112.36V63.0657H112.002H107.978V56.5763H108.336H112.217Z" fill="#515451"/>
<path d="M114.976 56.5763L117.199 61.8025L119.413 56.5763H120.766V63.0657H120.409H119.772V58.0824L117.729 63.0657H117.37H116.662L114.619 58.0824V63.0657H114.261H113.633V56.5763H113.992H114.976Z" fill="#515451"/>
<path d="M124.746 57.6074L123.519 60.7355H125.912L124.746 57.6074ZM125.284 56.5763L127.892 63.0657H127.533H126.834L126.127 61.2992H123.312L122.675 63.0657H122.318H121.609L124.218 56.5763H124.575H125.284Z" fill="#515451"/>
<path d="M132.561 59.6777H133.546C133.793 59.6895 134.017 59.6712 134.22 59.6239C134.422 59.5762 134.606 59.5047 134.767 59.409C134.921 59.3067 135.04 59.1757 135.121 59.0144C135.201 58.8532 135.242 58.6561 135.242 58.4233C135.242 58.2135 135.21 58.03 135.147 57.8714C135.085 57.7136 134.991 57.5804 134.864 57.4729C134.74 57.372 134.578 57.2941 134.381 57.2396C134.183 57.1858 133.953 57.1596 133.691 57.1596L132.561 57.1412V59.6777ZM133.978 56.5763C134.258 56.5889 134.53 56.6288 134.789 56.6977C135.05 56.7663 135.295 56.8694 135.528 57.007C135.761 57.1447 135.938 57.3308 136.057 57.5673C136.175 57.8033 136.236 58.0885 136.236 58.4233C136.236 58.7575 136.175 59.0446 136.057 59.2831C135.938 59.5225 135.757 59.7104 135.519 59.8481C135.28 59.9857 135.026 60.0888 134.758 60.1575C134.489 60.2256 134.205 60.2597 133.907 60.2597L133.546 60.2518L132.561 60.2421V63.0657H132.203H131.566V56.5763H131.925H133.978Z" fill="#515451"/>
<path d="M139.652 57.6074L138.423 60.7355H140.816L139.652 57.6074ZM140.189 56.5763L142.797 63.0657H142.438H141.74L141.032 61.2992H138.217L137.58 63.0657H137.222H136.513L139.123 56.5763H139.48H140.189Z" fill="#515451"/>
<path d="M144.706 59.3998H145.898C146.107 59.4116 146.296 59.3953 146.467 59.3508C146.638 59.3054 146.789 59.2347 146.92 59.1402C147.051 59.0511 147.151 58.9331 147.216 58.7903C147.281 58.6474 147.315 58.4796 147.315 58.2882C147.315 58.0976 147.285 57.9298 147.23 57.7862C147.172 57.6433 147.087 57.5266 146.973 57.4375C146.859 57.3471 146.708 57.2789 146.516 57.2304C146.325 57.1832 146.098 57.1596 145.836 57.1596L144.706 57.1412V59.3998ZM146.544 56.6392C146.842 56.651 147.104 56.6995 147.328 56.7829C147.552 56.866 147.735 56.9892 147.879 57.1504C148.022 57.3116 148.13 57.482 148.202 57.6611C148.274 57.8399 148.308 58.0261 148.308 58.2161C148.308 58.4442 148.286 58.6408 148.242 58.8086C148.197 58.9759 148.13 59.1127 148.04 59.2202C147.951 59.3277 147.839 59.4208 147.708 59.4981C147.577 59.5762 147.425 59.6423 147.251 59.6955C147.33 59.7078 147.398 59.7222 147.458 59.7406C147.517 59.7584 147.567 59.78 147.61 59.8035C147.652 59.8272 147.689 59.8507 147.722 59.8743C147.755 59.8987 147.783 59.9229 147.808 59.9464L147.851 60.0002L147.896 60.0539L147.923 60.0814L147.951 60.1084C148.004 60.1732 148.05 60.2592 148.085 60.3633C148.121 60.4682 148.151 60.5887 148.175 60.7263C148.193 60.8692 148.211 61.0161 148.228 61.1655C148.246 61.3149 148.258 61.4678 148.265 61.623V61.6492L148.274 61.6853C148.285 61.8348 148.295 61.9782 148.305 62.1158C148.312 62.2535 148.328 62.3845 148.344 62.5098C148.357 62.6349 148.378 62.7445 148.408 62.8368C148.438 62.9298 148.473 63.0059 148.515 63.0657H148.157H147.529C147.487 63.0177 147.45 62.9535 147.417 62.8722C147.384 62.7922 147.361 62.6978 147.35 62.5904C147.331 62.4829 147.318 62.3714 147.31 62.2548C147.301 62.1381 147.289 62.017 147.278 61.8916C147.278 61.8799 147.278 61.8676 147.278 61.8557C147.278 61.8432 147.278 61.8322 147.278 61.8196C147.273 61.8078 147.269 61.796 147.269 61.7842C147.269 61.7724 147.269 61.7601 147.269 61.7475C147.269 61.7357 147.269 61.7247 147.269 61.7129C147.269 61.7003 147.269 61.6885 147.269 61.6767C147.264 61.6644 147.26 61.6526 147.26 61.64C147.26 61.6282 147.26 61.6164 147.26 61.6046C147.243 61.4014 147.216 61.2074 147.18 61.0213C147.144 60.8373 147.095 60.6603 147.036 60.4931C146.976 60.32 146.882 60.1915 146.754 60.1084C146.626 60.0245 146.46 59.9818 146.257 59.9818L144.706 59.9643V63.0657H144.348H143.711V56.6392H144.07H146.544Z" fill="#515451"/>
<path d="M152.217 57.6074L150.989 60.7355H153.381L152.217 57.6074ZM152.754 56.5763L155.363 63.0657H155.003H154.305L153.597 61.2992H150.783L150.146 63.0657H149.787H149.079L151.688 56.5763H152.045H152.754Z" fill="#515451"/>
<path d="M160.031 56.5763V62.5007H163.285V63.0657H162.926H159.036V56.5763H159.396H160.031Z" fill="#515451"/>
<path d="M166.627 57.6074L165.4 60.7355H167.793L166.627 57.6074ZM167.165 56.5763L169.773 63.0657H169.415H168.717L168.008 61.2992H165.195L164.558 63.0657H164.199H163.491L166.099 56.5763H166.457H167.165Z" fill="#515451"/>
<path d="M178.612 59.7492V62.7877C178.533 62.8414 178.45 62.886 178.364 62.9219C178.278 62.9573 178.189 62.9908 178.1 63.0202C178.058 63.0328 178.013 63.0433 177.966 63.0517C177.918 63.0608 177.872 63.0688 177.832 63.0747C177.808 63.0805 177.782 63.0845 177.759 63.0879C177.735 63.091 177.711 63.0957 177.688 63.1015C177.663 63.1068 177.641 63.112 177.62 63.1146C177.598 63.1172 177.578 63.1225 177.553 63.1285C177.458 63.1395 177.365 63.1527 177.275 63.1644C177.185 63.1762 177.096 63.1854 177.006 63.1906C176.916 63.1967 176.831 63.2011 176.747 63.2037C176.662 63.2077 176.58 63.2085 176.496 63.2085H176.137C175.658 63.2085 175.233 63.1316 174.86 62.9757C174.486 62.821 174.166 62.5851 173.896 62.2678C173.627 61.9514 173.427 61.5901 173.296 61.1833C173.165 60.7774 173.099 60.3291 173.099 59.8389C173.099 59.755 173.101 59.6658 173.108 59.5702C173.113 59.4745 173.122 59.3796 173.135 59.2831C173.147 59.1816 173.165 59.0807 173.189 58.9784C173.212 58.8767 173.239 58.7758 173.27 58.6735C173.352 58.4056 173.466 58.1466 173.609 57.8988C173.753 57.6511 173.929 57.4165 174.139 57.1949C174.347 56.9682 174.601 56.7991 174.902 56.689C175.199 56.5776 175.539 56.5225 175.921 56.5225L176.28 56.5133C176.598 56.5194 176.888 56.5631 177.154 56.6439C177.419 56.7243 177.654 56.8423 177.859 56.9978C178.067 57.1596 178.23 57.3412 178.342 57.5444C178.455 57.7481 178.521 57.9723 178.539 58.2161L178.181 58.2069L177.473 58.199C177.448 58.0549 177.405 57.9251 177.341 57.8092C177.28 57.6917 177.197 57.5929 177.096 57.5082C177 57.4251 176.898 57.3549 176.791 57.2972C176.684 57.2408 176.57 57.1949 176.451 57.1596C176.409 57.1472 176.366 57.1373 176.322 57.1281C176.276 57.1189 176.231 57.111 176.182 57.1058C176.176 57.1058 176.168 57.1058 176.16 57.1058C176.151 57.1058 176.141 57.1032 176.129 57.0966C176.123 57.0966 176.115 57.0966 176.105 57.0966C176.096 57.0966 176.089 57.0966 176.083 57.0966C175.796 57.1202 175.539 57.1976 175.312 57.3294C175.086 57.461 174.888 57.6459 174.722 57.8844C174.537 58.1479 174.396 58.4423 174.304 58.768C174.212 59.0943 174.166 59.4508 174.166 59.8389C174.166 60.3409 174.213 60.7651 174.309 61.1116C174.404 61.4578 174.55 61.7304 174.747 61.927C174.939 62.1249 175.143 62.2809 175.358 62.3976C175.573 62.5143 175.796 62.5903 176.029 62.6257C176.065 62.6323 176.102 62.6388 176.141 62.644C176.18 62.6506 176.221 62.6532 176.263 62.6532C176.268 62.6532 176.274 62.6532 176.28 62.6532C176.286 62.6532 176.296 62.6532 176.307 62.6532C176.313 62.6584 176.319 62.6624 176.325 62.6624C176.331 62.6624 176.337 62.6624 176.343 62.6624C176.355 62.6624 176.368 62.6624 176.38 62.6624C176.391 62.6624 176.402 62.6584 176.415 62.6532C176.427 62.6532 176.439 62.6532 176.451 62.6532C176.462 62.6532 176.475 62.6532 176.488 62.6532C176.552 62.6474 176.616 62.6401 176.68 62.6304C176.742 62.6217 176.809 62.6112 176.882 62.5994C176.911 62.5937 176.943 62.5877 176.974 62.5819C177.009 62.5759 177.042 62.5693 177.079 62.5635C177.109 62.551 177.139 62.5404 177.173 62.5321C177.204 62.5235 177.237 62.5155 177.266 62.5098C177.333 62.492 177.393 62.471 177.449 62.4474C177.507 62.4233 177.562 62.3989 177.616 62.3753V60.3134H175.994V59.7492H176.353H178.612Z" fill="#515451"/>
<path d="M184.544 56.5763V57.1412H181.3V59.4627H184.41V60.0271H181.3V62.5007H184.688V63.0657H184.329H180.305V56.5763H180.663H184.544Z" fill="#515451"/>
<path d="M186.799 61.851C186.867 62.0156 186.96 62.1603 187.08 62.2861C187.188 62.3989 187.314 62.4862 187.458 62.5457C187.601 62.6047 187.759 62.6414 187.932 62.6532C188.183 62.6414 188.401 62.6074 188.586 62.5504C188.772 62.4933 188.921 62.4081 189.034 62.2941C189.172 62.169 189.274 62.0384 189.339 61.9002C189.405 61.7631 189.441 61.6203 189.447 61.4708C189.447 61.3502 189.429 61.2357 189.392 61.1255C189.356 61.0147 189.304 60.9059 189.231 60.7984C189.16 60.6896 189.075 60.5978 188.976 60.5205C188.878 60.4431 188.765 60.3802 188.64 60.3317C188.598 60.32 188.558 60.3068 188.519 60.2911C188.48 60.2767 188.439 60.2636 188.397 60.2518C188.355 60.2387 188.315 60.2269 188.278 60.2151C188.239 60.2033 188.201 60.1915 188.166 60.1797C188.153 60.1731 188.139 60.1692 188.125 60.1666C188.109 60.1634 188.097 60.1587 188.085 60.1522C188.072 60.1522 188.06 60.1517 188.049 60.1482C188.037 60.1456 188.024 60.1404 188.012 60.1351C188 60.1286 187.988 60.1246 187.978 60.1207C187.964 60.1181 187.953 60.1141 187.941 60.1084C187.923 60.1023 187.907 60.0979 187.896 60.0945C187.884 60.0919 187.871 60.0866 187.86 60.0814C187.603 59.9975 187.358 59.9031 187.125 59.799C186.892 59.6941 186.668 59.5762 186.453 59.4443C186.238 59.3067 186.078 59.1245 185.973 58.8977C185.87 58.6709 185.817 58.3957 185.817 58.0732C185.817 57.8643 185.864 57.6624 185.96 57.4684C186.056 57.2736 186.196 57.0874 186.382 56.9079C186.572 56.7349 186.785 56.6033 187.017 56.5133C187.251 56.4242 187.508 56.3796 187.789 56.3796L188.147 56.3704C188.446 56.3765 188.723 56.4124 188.98 56.4787C189.237 56.5435 189.467 56.6452 189.67 56.7828C189.88 56.9144 190.038 57.077 190.145 57.271C190.254 57.4657 190.316 57.6852 190.333 57.9298L189.975 57.9211L189.347 57.912C189.347 57.7987 189.313 57.6865 189.245 57.5759C189.176 57.4657 189.074 57.3588 188.937 57.2579C188.823 57.1747 188.692 57.1071 188.546 57.056C188.401 57.0049 188.231 56.9708 188.039 56.9532C187.866 56.9768 187.709 57.0193 187.568 57.0783C187.429 57.1386 187.305 57.2219 187.197 57.3294C187.083 57.4427 186.997 57.5659 186.937 57.697C186.877 57.8288 186.848 57.9631 186.848 58.1007C186.848 58.1959 186.861 58.2916 186.888 58.3873C186.915 58.4829 186.958 58.5752 187.017 58.6651C187.078 58.7548 187.154 58.8382 187.247 58.9161C187.339 58.9934 187.452 59.0655 187.582 59.131C187.636 59.1554 187.69 59.1808 187.748 59.207C187.805 59.2333 187.862 59.2595 187.923 59.2831C187.982 59.3067 188.043 59.3311 188.102 59.3552C188.161 59.3796 188.222 59.3998 188.281 59.4176C188.299 59.4233 188.317 59.4312 188.336 59.4404C188.353 59.449 188.374 59.4561 188.397 59.4627C188.416 59.4745 188.434 59.4837 188.452 59.4902C188.469 59.4954 188.488 59.502 188.505 59.5072C188.523 59.5125 188.542 59.519 188.56 59.5251C188.577 59.5308 188.598 59.5374 188.622 59.5426C188.64 59.5492 188.658 59.5552 188.676 59.561C188.694 59.567 188.713 59.5728 188.729 59.5788C188.963 59.6567 189.181 59.7453 189.384 59.8428C189.586 59.9425 189.775 60.0486 189.948 60.1621C190.121 60.2753 190.254 60.4274 190.341 60.6188C190.432 60.8102 190.477 61.043 190.477 61.3175C190.477 61.6884 190.415 61.9991 190.289 62.2495C190.164 62.5006 189.975 62.692 189.724 62.8236C189.473 62.9547 189.211 63.0517 188.937 63.1146C188.661 63.1776 188.374 63.2085 188.075 63.2085H187.717C187.436 63.2085 187.178 63.1736 186.946 63.1015C186.713 63.0294 186.507 62.9193 186.327 62.7698C186.143 62.6204 185.997 62.4251 185.889 62.1826C185.78 61.9401 185.709 61.6525 185.672 61.3175L186.31 61.2991H186.668C186.686 61.5036 186.73 61.6866 186.799 61.851Z" fill="#515451"/>
<path d="M196.196 56.6392V57.1412H194.08V63.0657H193.722H193.084V57.1412H191.042V56.6392H191.401H196.196Z" fill="#515451"/>
<path d="M198.176 56.5763V63.0657H197.181V56.5763H197.539H198.176Z" fill="#515451"/>
<path d="M203.902 54.6678L202.702 56.0121H201.851L202.702 54.6678H203.06H203.902ZM200.73 59.7493C200.73 60.1496 200.776 60.5161 200.866 60.847C200.954 61.1786 201.092 61.4854 201.278 61.7658C201.443 62.0228 201.655 62.2181 201.91 62.3531C202.163 62.4876 202.463 62.5636 202.809 62.582C203.15 62.5636 203.449 62.4921 203.705 62.367C203.962 62.2404 204.176 62.0621 204.343 61.8288C204.522 61.5719 204.658 61.2777 204.749 60.9461C204.842 60.6137 204.889 60.2453 204.889 59.839C204.889 59.4509 204.841 59.0878 204.745 58.7505C204.65 58.4128 204.506 58.1008 204.315 57.8137C204.141 57.5503 203.93 57.3471 203.68 57.2042C203.427 57.0608 203.138 56.9769 202.809 56.9533C202.533 56.9709 202.286 57.0377 202.062 57.1544C201.837 57.2711 201.639 57.4343 201.466 57.6433C201.274 57.8761 201.119 58.1178 201.002 58.3695C200.887 58.6199 200.808 58.886 200.767 59.1665C200.76 59.1848 200.755 59.2027 200.752 59.2203C200.749 59.2386 200.748 59.2564 200.748 59.274C200.743 59.2984 200.739 59.3193 200.739 59.3369C200.739 59.3553 200.739 59.3731 200.739 59.3907C200.733 59.4268 200.73 59.4627 200.73 59.4981C200.73 59.5343 200.73 59.5703 200.73 59.6056C200.73 59.6174 200.73 59.6319 200.73 59.6462C200.73 59.6607 200.73 59.6751 200.73 59.6869C200.73 59.6929 200.73 59.6987 200.73 59.7047C200.73 59.7105 200.73 59.7165 200.73 59.7223C200.73 59.7288 200.73 59.7341 200.73 59.7407C200.73 59.7467 200.73 59.7524 200.73 59.7584V59.7493ZM199.91 58.4456C200.027 58.0484 200.202 57.6853 200.433 57.3562C200.668 57.0338 200.968 56.79 201.335 56.6261C201.703 56.4617 202.136 56.3797 202.631 56.3797L202.989 56.3705C203.431 56.3766 203.824 56.457 204.168 56.6117C204.511 56.7677 204.802 56.9979 205.041 57.3025C205.286 57.6074 205.482 57.9291 205.629 58.266C205.774 58.6041 205.868 58.9581 205.911 59.3277C205.911 59.3526 205.913 59.3749 205.917 59.3954C205.917 59.4164 205.923 59.436 205.929 59.4535C205.929 59.4772 205.929 59.5003 205.933 59.5204C205.936 59.5414 205.939 59.5637 205.939 59.5886C205.939 59.6122 205.939 59.6345 205.939 59.6554C205.939 59.6764 205.941 59.6956 205.947 59.7139C205.947 59.738 205.947 59.7603 205.947 59.7807C205.947 59.8023 205.947 59.8206 205.947 59.839C205.947 59.8568 205.947 59.8743 205.947 59.8927C205.947 59.9105 205.947 59.9281 205.947 59.9464C205.947 59.9643 205.947 59.9813 205.947 59.9962C205.947 60.0107 205.947 60.0245 205.947 60.0356C205.929 60.4301 205.857 60.8064 205.732 61.1616C205.606 61.5168 205.429 61.8558 205.202 62.1788C204.97 62.5007 204.67 62.7424 204.302 62.8997C203.935 63.0583 203.497 63.137 202.989 63.137H202.631C202.098 63.137 201.648 63.0583 201.278 62.8997C200.908 62.7424 200.617 62.5007 200.408 62.1788C200.204 61.8558 200.045 61.4932 199.932 61.0894C199.818 60.6858 199.753 60.2453 199.735 59.7676V59.7493C199.735 59.2774 199.792 58.8427 199.91 58.4456Z" fill="#515451"/>
<path d="M208.213 56.5763L211.458 61.6584V56.5763H212.454V63.0657H212.094H211.314L208.143 58.0549V63.0657H207.785H207.157V56.5763H207.515H208.213Z" fill="#515451"/>
<path d="M89.1206 73.255H90.2494C90.5709 73.2684 90.8736 73.2202 91.1541 73.1127C91.4346 73.0047 91.695 72.8408 91.9346 72.6196C92.1729 72.4046 92.3534 72.1301 92.4722 71.7953C92.5917 71.4605 92.6507 71.0665 92.6507 70.6114C92.6507 70.6001 92.6507 70.5865 92.6507 70.5718C92.6507 70.5571 92.6507 70.543 92.6507 70.5317C92.6507 70.5194 92.6507 70.5068 92.6507 70.4905C92.6507 70.4766 92.6507 70.463 92.6507 70.4509C92.6507 70.0443 92.5917 69.6859 92.4722 69.3753C92.3534 69.0644 92.1702 68.7988 91.9259 68.5778C91.6856 68.357 91.3924 68.1906 91.042 68.0804C90.6937 67.9698 90.2877 67.9142 89.8279 67.9142L89.1206 67.8967V73.255ZM90.6078 67.3314C91.1568 67.3438 91.6246 67.4363 92.0098 67.6093C92.3957 67.7826 92.7051 68.0396 92.938 68.3806C93.1709 68.7275 93.3454 69.0961 93.4622 69.4872C93.5789 69.8786 93.6373 70.2952 93.6373 70.7375C93.6192 71.2275 93.538 71.6637 93.3944 72.0462C93.2514 72.4282 93.0387 72.7543 92.7581 73.0236C92.4843 73.292 92.1662 73.4926 91.8085 73.6234C91.4507 73.7558 91.0494 73.8208 90.6078 73.8208H90.2494H88.1333V67.3314H88.4924H90.6078Z" fill="#515451"/>
<path d="M99.2917 67.3314V67.8967H96.0467V70.2181H99.1581V70.7826H96.0467V73.255H99.4346V73.8208H99.0769H95.0527V67.3314H95.4111H99.2917Z" fill="#515451"/>
<path d="M101.766 67.3314V73.255H105.019V73.8208H104.662H100.771V67.3314H101.131H101.766Z" fill="#515451"/>
<path d="M111.195 68.3631L109.968 71.4912H112.361L111.195 68.3631ZM111.731 67.3314L114.34 73.8208H113.982H113.283L112.575 72.0551H109.76L109.124 73.8208H108.766H108.058L110.666 67.3314H111.024H111.731Z" fill="#515451"/>
<path d="M116.177 70.4328H117.163C117.408 70.4449 117.632 70.4268 117.836 70.3791C118.039 70.3309 118.221 70.2598 118.383 70.1644C118.537 70.0624 118.656 69.9308 118.737 69.7698C118.817 69.6089 118.858 69.4107 118.858 69.1787C118.858 68.9692 118.827 68.7851 118.764 68.6268C118.701 68.4685 118.607 68.3355 118.481 68.2283C118.357 68.1276 118.194 68.049 117.997 67.9952C117.8 67.941 117.57 67.9142 117.307 67.9142L116.177 67.8967V70.4328ZM117.595 67.3314C117.876 67.3438 118.145 67.3839 118.406 67.4531C118.666 67.5215 118.912 67.6243 119.143 67.7617C119.378 67.8993 119.555 68.086 119.673 68.3222C119.793 68.5578 119.852 68.8436 119.852 69.1787C119.852 69.5127 119.793 69.8 119.673 70.0383C119.555 70.2771 119.374 70.4659 119.136 70.6027C118.896 70.7409 118.642 70.8442 118.374 70.9113C118.106 70.9813 117.821 71.0154 117.522 71.0154L117.163 71.0059L116.177 70.9981V73.8208H115.819H115.183V67.3314H115.541H117.595Z" fill="#515451"/>
<path d="M122.039 70.155H123.231C123.44 70.167 123.631 70.1502 123.8 70.1054C123.972 70.0611 124.121 69.9901 124.254 69.8946C124.384 69.8055 124.483 69.6893 124.549 69.5457C124.615 69.402 124.647 69.235 124.647 69.0436C124.647 68.853 124.618 68.6845 124.562 68.5416C124.505 68.3987 124.42 68.2818 124.308 68.1926C124.194 68.1027 124.041 68.0343 123.85 67.9858C123.658 67.9389 123.431 67.9142 123.168 67.9142L122.039 67.8967V70.155ZM123.877 67.3946C124.175 67.4067 124.437 67.4544 124.66 67.5375C124.884 67.6214 125.069 67.7443 125.212 67.9061C125.355 68.0671 125.463 68.237 125.534 68.4168C125.606 68.5953 125.642 68.7812 125.642 68.9718C125.642 69.1994 125.619 69.396 125.575 69.563C125.531 69.7308 125.463 69.8684 125.373 69.9759C125.284 70.0831 125.173 70.1764 125.042 70.2538C124.91 70.3309 124.759 70.398 124.584 70.4509C124.662 70.463 124.731 70.4779 124.79 70.4952C124.851 70.5133 124.902 70.5348 124.943 70.5584C124.985 70.5825 125.022 70.6067 125.055 70.6295C125.088 70.6544 125.117 70.678 125.141 70.7021L125.186 70.7558L125.23 70.8093L125.258 70.8368L125.284 70.8631C125.337 70.9289 125.382 71.0141 125.418 71.1189C125.454 71.2227 125.484 71.3444 125.508 71.4818C125.525 71.6249 125.544 71.7717 125.561 71.9209C125.58 72.0706 125.591 72.2221 125.597 72.3778V72.4046L125.606 72.441C125.618 72.5899 125.629 72.7336 125.638 72.8712C125.647 73.0081 125.66 73.1402 125.677 73.2645C125.69 73.3906 125.712 73.4999 125.741 73.5919C125.769 73.6853 125.806 73.7605 125.849 73.8208H125.49H124.862C124.82 73.7731 124.783 73.7089 124.751 73.6276C124.717 73.5476 124.695 73.453 124.682 73.3458C124.666 73.2383 124.651 73.1261 124.644 73.0094C124.634 72.8933 124.623 72.7724 124.612 72.6463C124.612 72.6356 124.612 72.6227 124.612 72.6106C124.612 72.5986 124.612 72.5865 124.612 72.5753C124.605 72.5632 124.602 72.5517 124.602 72.5396C124.602 72.5275 124.602 72.516 124.602 72.5026C124.602 72.4914 124.602 72.4798 124.602 72.4678C124.602 72.4557 124.602 72.4437 124.602 72.4316C124.596 72.4201 124.594 72.408 124.594 72.3954C124.594 72.3839 124.594 72.3718 124.594 72.3598C124.575 72.1571 124.549 71.9631 124.513 71.7764C124.477 71.5919 124.429 71.4162 124.37 71.2484C124.31 71.0751 124.216 70.947 124.088 70.8631C123.959 70.78 123.793 70.7375 123.59 70.7375L122.039 70.7194V73.8208H121.681H121.044V67.3946H121.403H123.877Z" fill="#515451"/>
<path d="M131.566 67.3314V67.8967H128.322V70.2181H131.433V70.7826H128.322V73.255H131.709V73.8208H131.352H127.328V67.3314H127.686H131.566Z" fill="#515451"/>
<path d="M134.039 67.3314L137.284 72.414V67.3314H138.28V73.8208H137.922H137.141L133.968 68.81V73.8208H133.61H132.982V67.3314H133.341H134.039Z" fill="#515451"/>
<path d="M140.753 73.255H141.882C142.205 73.2684 142.506 73.2202 142.787 73.1127C143.068 73.0047 143.328 72.8408 143.567 72.6196C143.806 72.4046 143.985 72.1301 144.106 71.7953C144.224 71.4605 144.284 71.0665 144.284 70.6114C144.284 70.6001 144.284 70.5865 144.284 70.5718C144.284 70.5571 144.284 70.543 144.284 70.5317C144.284 70.5194 144.284 70.5068 144.284 70.4905C144.284 70.4766 144.284 70.463 144.284 70.4509C144.284 70.0443 144.224 69.6859 144.106 69.3753C143.985 69.0644 143.804 68.7988 143.557 68.5778C143.319 68.357 143.025 68.1906 142.675 68.0804C142.325 67.9698 141.92 67.9142 141.461 67.9142L140.753 67.8967V73.255ZM142.241 67.3314C142.791 67.3438 143.257 67.4363 143.643 67.6093C144.029 67.7826 144.338 68.0396 144.57 68.3806C144.805 68.7275 144.979 69.0961 145.095 69.4872C145.212 69.8786 145.27 70.2952 145.27 70.7375C145.252 71.2275 145.172 71.6637 145.028 72.0462C144.885 72.4282 144.673 72.7543 144.392 73.0236C144.116 73.292 143.801 73.4926 143.442 73.6234C143.082 73.7558 142.683 73.8208 142.241 73.8208H141.882H139.768V67.3314H140.125H142.241Z" fill="#515451"/>
<path d="M147.681 67.3314V73.8208H146.687V67.3314H147.046H147.681Z" fill="#515451"/>
<path d="M153.551 67.3314V67.8248L150.02 73.255H153.551V73.8208H153.193H148.953V73.255L152.485 67.8248H148.882V67.3314H149.24H153.551Z" fill="#515451"/>
<path d="M157.037 68.3631L155.809 71.4912H158.203L157.037 68.3631ZM157.576 67.3314L160.184 73.8208H159.826H159.127L158.417 72.0551H155.604L154.967 73.8208H154.609H153.901L156.509 67.3314H156.868H157.576Z" fill="#515451"/>
<path d="M164.28 67.3314V71.9119C164.28 72.2409 164.242 72.5262 164.167 72.7676C164.092 73.0093 163.977 73.2175 163.823 73.3905C163.673 73.5583 163.472 73.6839 163.218 73.767C162.964 73.8504 162.661 73.8926 162.309 73.8926H161.95C161.704 73.8926 161.483 73.8517 161.287 73.7717C161.089 73.6904 160.916 73.5664 160.767 73.3992C160.616 73.2314 160.507 73.0497 160.436 72.8531C160.362 72.6557 160.328 72.4436 160.328 72.2168L160.963 72.1987H161.323C161.352 72.3838 161.397 72.5464 161.461 72.6871C161.524 72.8274 161.599 72.9483 161.69 73.0497C161.767 73.1281 161.863 73.1926 161.976 73.2421C162.089 73.2933 162.224 73.3247 162.379 73.3368C162.499 73.3247 162.612 73.292 162.716 73.2382C162.822 73.1845 162.911 73.11 162.989 73.0141C163.091 72.9 163.165 72.7543 163.214 72.5752C163.262 72.3954 163.285 72.1804 163.285 71.9295V67.3314H163.644H164.28Z" fill="#515451"/>
<path d="M170.142 67.3314V67.8967H166.896V70.2181H170.007V70.7826H166.896V73.255H170.285V73.8208H169.926H165.901V67.3314H166.26H170.142Z" fill="#515451"/>
<path d="M178.763 67.3314V67.8967H175.517V70.2181H178.628V70.7826H175.517V73.255H178.906V73.8208H178.548H174.523V67.3314H174.881H178.763Z" fill="#515451"/>
<path d="M181.237 67.3314L184.481 72.414V67.3314H185.477V73.8208H185.117H184.338L181.166 68.81V73.8208H180.806H180.179V67.3314H180.538H181.237Z" fill="#515451"/>
<path d="M190.853 67.3314V73.255H194.106V73.8208H193.748H189.859V67.3314H190.217H190.853Z" fill="#515451"/>
<path d="M196.222 67.3314V73.8208H195.227V67.3314H195.585H196.222ZM197.073 65.4947L195.873 66.8297H195.021L195.864 65.4947H196.222H197.073Z" fill="#515451"/>
<path d="M198.982 67.3314L202.227 72.414V67.3314H203.224V73.8208H202.864H202.084L198.91 68.81V73.8208H198.552H197.924V67.3314H198.284H198.982Z" fill="#515451"/>
<path d="M209.084 67.3314V67.8967H205.839V70.2181H208.948V70.7826H205.839V73.255H209.227V73.8208H208.868H204.843V67.3314H205.203H209.084Z" fill="#515451"/>
<path d="M212.856 68.3631L211.629 71.4912H214.022L212.856 68.3631ZM213.394 67.3314L216.003 73.8208H215.645H214.944L214.237 72.0551H211.423L210.786 73.8208H210.427H209.719L212.328 67.3314H212.686H213.394Z" fill="#515451"/>
<path d="M58.9211 56.6583C62.0007 47.9303 61.8067 38.101 57.7799 29.1939L64.1266 25.5296C68.614 36.1585 66.4038 48.2934 58.9211 56.6583ZM13.3909 54.8218L19.738 51.1575C25.4379 59.0985 33.8534 64.1811 42.9518 65.8773C31.9664 68.1757 20.3519 64.0224 13.3909 54.8218ZM14.9055 17.2997C11.8258 26.028 12.0199 35.8571 16.0467 44.7638L9.69966 48.4284C5.21195 37.7995 7.42254 25.6646 14.9055 17.2997ZM38.2644 31.9364L28.5878 15.1763C35.9909 16.3127 42.9007 20.2434 47.6485 26.5185L38.2644 31.9364ZM51.6321 55.0905L41.9556 38.3303L51.3398 32.9122C54.4005 40.1616 54.3495 48.1112 51.6321 55.0905ZM35.5614 42.0216L45.2379 58.7818C37.8357 57.6453 30.9258 53.7149 26.178 47.4392L35.5614 42.0216ZM22.1937 18.8681L31.8701 35.6282L22.4868 41.0459C19.426 33.7965 19.4771 25.8471 22.1937 18.8681ZM60.4353 19.136L54.0886 22.8005C48.3886 14.8598 39.9731 9.77692 30.8747 8.08022C41.8599 5.78182 53.4744 9.93532 60.4353 19.136ZM43.6419 0.693909C37.6031 -0.428238 31.2666 -0.065155 25.2203 1.96102C22.912 2.73485 20.6466 3.74693 18.457 5.01136C16.2672 6.27579 14.2574 7.73156 12.4333 9.34384C7.6553 13.5665 4.17247 18.873 2.12497 24.6637C-1.3474 34.4854 -0.671282 45.7063 4.94585 55.4352C10.5633 65.1642 19.9422 71.3596 30.1844 73.2637C36.2233 74.3866 42.5599 74.0227 48.6062 71.9967C50.9146 71.2233 53.1799 70.2106 55.3698 68.9462C57.5594 67.6825 59.5691 66.2267 61.3933 64.6144C66.1712 60.3915 69.6542 55.0852 71.7012 49.294C75.173 39.4721 74.4978 28.252 68.8804 18.5225C63.2635 8.7933 53.8838 2.59727 43.6419 0.693909Z" fill="#669933"/>
</g>
<defs>
<clipPath id="clip0">
<rect width="216" height="73.8926" fill="white"/>
</clipPath>
</defs>
</svg>
